# xmcd CD database file
#
# Track frame offsets:
#	150
#	24095
#	50112
#
# Disc length: 957 seconds
#
# Revision: 0
# Processed by: cddbd v1.5PL3 Copyright (c) Steve Scherf et al.
# Submitted via: CDex 1.50
#
DISCID=1c03bb03
DTITLE=UA - Illuminate the very best songs
DYEAR=2003
DGENRE=JPop
TTITLE0=情熱(macaron mix)
TTITLE1=リズム(sakuragaoka flava mix)
TTITLE2=ミルクティー(ナカマmix)
EXTD=YEAR: 2003
EXTT0=
EXTT1=
EXTT2=
PLAYORDER=
